# xmcd
#
# Track frame offsets:
#	150
#	11767
#	22934
#	36277
#	46030
#	55614
#	70107
#	83029
#	99052
#	115183
#
# Disc length: 1724 seconds
#
# Revision: 3
# Processed by: cddbd v1.5.2PL0 Copyright (c) Steve Scherf et al.
# Submitted via: audiograbber 1.83.01
#
DISCID=6806ba0a
DTITLE=Billy Swan - I'm Into Lovin' You
DYEAR=1981
DGENRE=Country
TTITLE0=Do I Have To Draw A Picture
TTITLE1=Stuck Right In The Middle Of Your Love
TTITLE2=I'm Into Lovin' You
TTITLE3=Not Far From Forty
TTITLE4=My Girl Josephine
TTITLE5=Win Your Over
TTITLE6=What's Our Love Coming To
TTITLE7=Soft Touch
TTITLE8=Lay Down And Love Me Tonight
TTITLE9=Only Be You
EXTD=MARO\n
EXTT0=
EXTT1=
EXTT2=
EXTT3=
EXTT4=
EXTT5=
EXTT6=
EXTT7=
EXTT8=
EXTT9=
PLAYORDER=
